<?xml version="1.0" standalone="no"?>
<!DOCTYPE svg PUBLIC "-//W3C//DTD SVG 20010904//EN"
 "http://www.w3.org/TR/2001/REC-SVG-20010904/DTD/svg10.dtd">
<svg version="1.0" xmlns="http://www.w3.org/2000/svg"
 width="2560.000000pt" height="1809.000000pt" viewBox="0 0 2560.000000 1809.000000"
 preserveAspectRatio="xMidYMid meet">

<g transform="translate(0.000000,1809.000000) scale(0.100000,-0.100000)"
fill="#000000" stroke="none">
<path d="M15998 15066 c-80 -18 -143 -44 -197 -79 -44 -29 -121 -101 -121
-113 0 -3 -14 -25 -30 -50 -41 -58 -58 -111 -69 -203 -11 -99 0 -183 33 -254
27 -61 32 -87 16 -87 -5 0 -102 -91 -216 -202 -113 -112 -230 -227 -260 -255
l-54 -53 -117 0 c-65 0 -356 6 -648 12 -291 7 -622 13 -735 13 -113 1 -506 7
-875 14 -368 7 -809 13 -980 15 -170 2 -434 6 -585 10 -151 4 -364 8 -473 9
l-198 2 -30 70 c-16 39 -43 85 -59 103 -17 18 -30 37 -30 41 0 5 -15 20 -34
35 -19 14 -41 32 -48 40 -19 18 -64 41 -135 68 -47 18 -78 22 -170 22 -62 0
-123 -5 -135 -11 -13 -6 -48 -23 -78 -37 -30 -14 -68 -36 -84 -50 -16 -15 -33
-26 -37 -26 -9 0 -87 -102 -112 -148 -57 -102 -72 -261 -36 -378 44 -145 173
-285 298 -325 20 -6 41 -16 48 -21 7 -6 57 -12 113 -15 91 -5 107 -3 185 22
47 16 85 32 85 37 0 4 5 8 11 8 19 0 109 77 151 131 23 28 56 87 73 131 l32
80 277 -1 c153 -1 283 -4 289 -6 7 -2 242 -6 522 -10 520 -6 1469 -22 1740
-30 83 -2 445 -7 805 -10 360 -4 666 -8 680 -9 15 0 26 -8 28 -20 4 -18 -34
-56 -525 -536 -73 -71 -133 -134 -133 -140 0 -5 -5 -10 -11 -10 -14 0 -95 -91
-91 -102 1 -5 -2 -7 -7 -4 -5 4 -11 3 -13 -1 -1 -5 -18 -20 -36 -35 -19 -16
-31 -28 -29 -28 3 0 -31 -35 -75 -77 -44 -43 -152 -149 -240 -235 l-160 -157
10 -48 c23 -105 -41 -279 -123 -339 -15 -10 -33 -24 -39 -30 -7 -7 -35 -22
-62 -35 -41 -20 -65 -23 -149 -24 -93 0 -105 2 -166 33 -83 41 -138 96 -181
181 -31 62 -33 72 -33 166 0 93 3 104 32 160 46 87 121 161 183 180 14 4 31
13 39 19 20 16 220 14 250 -3 22 -12 31 -5 213 176 240 238 228 226 225 230
-2 1 -856 4 -1898 5 -1042 1 -2040 5 -2219 9 -179 5 -430 10 -559 13 -142 3
-238 10 -246 16 -7 6 -16 26 -19 44 -4 19 -13 39 -21 46 -8 7 -15 20 -15 29 0
10 -30 50 -67 89 -108 114 -224 165 -373 165 -171 0 -308 -70 -419 -215 -12
-14 -21 -31 -21 -37 0 -6 -3 -11 -7 -11 -16 0 -43 -87 -57 -178 -11 -78 -11
-103 0 -156 15 -73 42 -146 58 -161 6 -6 19 -25 30 -44 20 -36 83 -97 125
-121 14 -8 30 -21 34 -27 4 -7 15 -13 23 -13 8 0 29 -7 45 -16 17 -8 66 -22
109 -30 70 -13 88 -13 160 0 74 14 177 56 215 88 96 79 143 146 201 285 15 36
20 40 39 33 12 -5 116 -9 231 -9 323 -1 937 -12 960 -17 12 -2 24 -14 27 -27
5 -17 8 -1460 7 -3304 l0 -122 140 137 c78 75 199 194 270 263 l130 127 -5
178 c-3 99 -7 343 -10 544 -15 1118 -17 1184 -33 1203 -8 9 -21 17 -28 17 -7
0 -19 6 -26 14 -8 7 -23 16 -35 20 -35 11 -109 99 -139 166 -25 57 -29 76 -29
155 1 132 35 217 122 302 117 115 295 134 447 48 58 -32 87 -61 132 -131 44
-68 57 -125 52 -231 -2 -73 -8 -99 -34 -153 -17 -36 -52 -87 -77 -113 l-47
-48 0 -127 c0 -70 4 -210 10 -312 6 -102 15 -506 20 -899 l10 -713 -25 -20
c-15 -11 -45 -41 -68 -65 -23 -25 -93 -98 -155 -162 -63 -64 -190 -195 -283
-291 -94 -96 -302 -310 -462 -474 -161 -165 -326 -334 -367 -377 -211 -218
-551 -568 -675 -694 -77 -79 -172 -177 -212 -219 -39 -42 -79 -76 -87 -76 -8
0 -30 9 -48 19 -93 54 -265 71 -383 36 -106 -31 -263 -155 -299 -235 -6 -14
-13 -27 -16 -30 -3 -3 -14 -32 -25 -65 -23 -69 -28 -272 -8 -296 6 -8 14 -31
18 -52 4 -21 14 -41 21 -44 8 -3 12 -9 9 -13 -7 -12 66 -100 111 -135 21 -16
45 -35 52 -42 7 -7 24 -16 38 -19 13 -3 24 -10 24 -15 0 -5 8 -9 18 -9 10 0
29 -8 42 -17 21 -15 47 -18 151 -18 76 0 135 5 150 12 13 6 41 17 61 23 20 6
65 33 99 61 87 69 111 98 156 189 63 126 65 295 5 433 l-25 59 31 24 c38 30
27 20 317 318 247 255 379 391 628 645 86 88 157 165 157 171 0 5 4 10 9 10 4
0 35 27 67 60 40 41 66 60 79 58 20 -3 20 -12 23 -453 1 -247 0 -459 -2 -470
-3 -12 -44 -59 -92 -105 -47 -47 -108 -106 -135 -132 -26 -27 -50 -48 -53 -48
-2 0 -26 11 -53 24 -109 55 -223 70 -333 45 -42 -9 -59 -16 -147 -56 -32 -15
-81 -54 -135 -109 -33 -34 -93 -154 -109 -219 -37 -150 11 -352 103 -436 10
-9 18 -21 18 -28 0 -6 4 -11 9 -11 5 0 16 -6 23 -13 58 -56 134 -98 220 -121
60 -17 213 -22 222 -7 3 5 22 12 42 16 113 21 252 134 314 255 24 47 60 188
60 233 0 56 -30 168 -61 229 -15 30 -10 66 9 72 10 3 40 30 68 58 28 29 76 77
108 106 l57 52 429 0 c235 0 435 -3 444 -6 27 -10 18 -41 -25 -81 -22 -21 -98
-94 -169 -163 -70 -69 -232 -226 -360 -350 -127 -124 -329 -321 -448 -437
-119 -117 -221 -213 -227 -213 -5 0 -30 9 -54 20 -63 29 -152 50 -210 50 -69
0 -179 -32 -249 -72 -78 -44 -192 -160 -192 -195 0 -7 -3 -13 -8 -13 -4 0 -18
-30 -32 -68 -20 -55 -24 -86 -24 -177 0 -106 1 -113 37 -188 95 -202 262 -309
480 -308 375 1 614 411 438 754 -21 40 -19 67 5 67 8 0 14 6 14 13 0 6 12 20
28 31 15 10 42 36 60 58 17 22 32 38 32 34 0 -3 31 25 69 62 304 298 291 288
349 258 22 -11 261 -15 1407 -20 1819 -9 2843 -16 2989 -21 103 -3 121 -6 130
-22 6 -10 10 -22 11 -28 1 -29 56 -108 114 -166 119 -119 269 -170 434 -147
39 5 81 14 92 19 11 5 31 13 45 19 25 10 60 30 70 40 3 3 21 16 40 29 124 83
202 272 186 449 -7 68 -15 96 -63 198 -21 47 -111 139 -172 179 -159 102 -364
103 -536 3 -54 -32 -150 -127 -160 -159 -4 -10 -11 -19 -16 -19 -5 0 -9 -6 -9
-12 -1 -7 -9 -31 -20 -53 -11 -22 -19 -50 -20 -62 0 -12 -9 -27 -20 -33 -19
-10 -2276 -6 -2689 5 -96 3 -492 5 -880 5 -388 1 -721 4 -739 8 -45 10 -39 24
43 103 56 54 240 232 523 507 505 493 700 688 717 719 16 27 16 36 6 61 -47
113 -18 256 70 357 38 42 113 95 138 95 9 0 23 6 30 13 17 17 233 17 239 -1 2
-6 13 -12 24 -12 10 0 40 -14 65 -31 142 -98 202 -260 154 -417 -23 -78 -77
-158 -130 -193 -20 -13 -38 -27 -41 -30 -3 -3 -14 -8 -25 -12 -11 -3 -40 -13
-65 -22 -31 -12 -70 -16 -130 -14 l-85 3 -132 -133 c-73 -74 -133 -135 -133
-136 0 -2 -33 -35 -72 -74 l-73 -71 2175 0 c1196 -1 2193 -2 2215 -4 128 -12
453 -16 477 -7 35 13 55 6 63 -22 45 -158 152 -282 300 -350 46 -21 161 -47
209 -47 57 0 189 39 244 73 65 39 156 126 178 170 9 18 20 34 23 37 4 3 17 38
30 78 21 64 23 86 18 180 -5 108 -15 145 -65 239 -24 45 -122 149 -156 164
-12 5 -40 20 -63 33 -37 21 -100 39 -140 41 -6 0 -15 4 -19 8 -23 23 -218 -14
-287 -55 -26 -15 -52 -28 -58 -28 -6 0 -7 -4 -4 -10 3 -5 0 -10 -7 -10 -38 -1
-178 -180 -178 -227 0 -27 -36 -76 -50 -68 -3 2 -54 6 -114 9 -60 4 -112 9
-116 11 -4 2 -207 5 -451 5 -263 1 -450 5 -461 11 -17 9 -18 82 -18 1689 0
1012 -4 1680 -9 1680 -5 0 -11 -4 -13 -9 -1 -5 -64 -74 -139 -153 -75 -79
-157 -165 -182 -193 -54 -59 -161 -174 -216 -230 l-38 -40 -7 -580 c-3 -319
-9 -708 -12 -865 l-6 -285 39 -41 c80 -84 105 -133 124 -238 19 -111 -16 -230
-89 -303 -62 -62 -101 -93 -116 -93 -8 0 -17 -4 -20 -9 -4 -5 -37 -15 -74 -21
-183 -33 -368 68 -434 236 -73 183 15 404 195 489 l57 26 0 552 c1 611 8 1185
15 1233 6 33 17 45 244 280 75 77 153 159 173 182 21 23 40 42 43 42 11 0 130
132 127 142 -1 5 1 7 6 4 4 -2 41 32 82 76 41 44 131 138 200 208 69 70 206
212 305 314 99 103 239 247 310 320 72 74 184 190 249 257 66 68 180 187 255
265 75 77 153 159 173 182 21 23 40 42 43 42 3 0 14 9 25 20 11 11 18 20 16
20 -2 0 18 23 44 50 26 28 55 50 63 50 8 0 37 -11 64 -24 61 -31 113 -47 124
-40 5 3 9 0 9 -5 0 -7 34 -11 93 -11 76 0 106 5 173 29 83 29 159 73 147 84
-3 4 -1 7 6 7 40 0 160 180 177 265 21 109 4 269 -37 344 -38 68 -44 78 -70
109 -73 86 -197 155 -309 173 -79 12 -204 0 -257 -25 -15 -8 -46 -22 -68 -32
-92 -41 -220 -199 -240 -297 -4 -18 -12 -37 -17 -44 -22 -27 11 -330 34 -308
3 3 8 -9 12 -27 6 -30 1 -37 -71 -109 -43 -42 -150 -151 -238 -243 -88 -92
-212 -220 -275 -286 -63 -65 -185 -191 -270 -280 -85 -89 -197 -203 -247 -255
-51 -51 -93 -98 -93 -104 0 -6 -7 -11 -15 -11 -8 0 -15 -4 -15 -10 0 -16 -37
-11 -44 6 -3 9 -6 229 -6 490 0 388 3 480 14 502 17 32 201 216 221 220 8 2
45 -8 82 -21 176 -63 351 -37 494 74 60 47 109 100 109 118 0 6 4 11 8 11 10
0 43 75 66 149 21 71 20 182 -3 251 -27 83 -53 140 -63 140 -4 0 -8 5 -8 11 0
16 -47 69 -54 62 -3 -4 -6 0 -6 8 0 17 -74 75 -135 107 -239 125 -558 17 -680
-231 -72 -146 -70 -338 5 -469 21 -37 9 -59 -92 -163 l-103 -105 -477 0 c-465
0 -478 1 -478 19 0 11 6 26 14 33 54 50 494 479 696 677 135 132 245 241 246
241 0 0 67 66 148 146 l148 147 43 -22 c23 -11 47 -21 54 -21 6 0 11 -4 11 -8
0 -11 121 -34 183 -35 59 0 187 23 187 34 0 4 13 10 29 14 16 3 35 13 42 21 6
8 17 14 24 14 20 0 132 117 161 168 49 89 67 165 62 277 -3 60 -12 120 -23
150 -37 104 -130 219 -211 260 -21 11 -46 25 -54 31 -50 38 -215 60 -302 40z
m146 -217 c-2 -4 14 -9 36 -13 22 -3 40 -11 40 -16 0 -6 6 -10 14 -10 22 0 95
-86 117 -138 78 -182 -64 -392 -267 -392 -211 0 -349 226 -254 415 30 57 82
114 108 115 6 0 12 4 12 10 0 5 17 12 38 15 20 3 43 9 50 13 17 9 112 9 106 1z
m-6067 -857 c35 -11 75 -33 95 -51 18 -17 36 -31 41 -31 4 0 7 -6 7 -14 0 -8
3 -16 8 -18 18 -8 44 -77 49 -134 8 -90 -16 -154 -87 -224 -70 -69 -140 -96
-226 -87 -31 3 -62 11 -67 16 -6 6 -17 11 -24 11 -26 0 -81 45 -112 91 -111
162 -52 368 125 435 73 27 118 28 191 6z m6160 -331 c54 -15 135 -88 165 -149
18 -37 23 -64 23 -127 0 -74 -3 -85 -32 -131 -37 -57 -70 -89 -126 -122 -32
-18 -53 -22 -131 -22 -92 0 -93 0 -147 39 -96 68 -129 134 -129 254 0 195 175
315 377 258z m1254 -155 c57 -25 111 -78 143 -140 26 -50 27 -164 2 -230 -27
-70 -106 -142 -179 -164 -12 -3 -53 -6 -92 -7 -115 0 -204 57 -253 163 -21 46
-23 64 -20 140 3 80 7 91 38 137 40 59 49 66 115 99 69 35 170 36 246 2z
m-9118 -442 c81 -24 147 -75 175 -134 56 -117 54 -188 -5 -295 -21 -38 -93
-105 -113 -105 -9 0 -22 -6 -28 -12 -9 -9 -44 -13 -102 -13 -58 0 -93 4 -101
13 -7 6 -20 12 -29 12 -25 0 -99 75 -119 120 -10 22 -20 38 -22 35 -7 -6 -13
50 -14 115 0 37 7 71 23 103 25 53 88 127 107 127 7 0 15 4 17 8 11 29 148 45
211 26z m4648 -2320 c155 -50 247 -164 266 -331 5 -40 3 -43 -24 -49 -33 -9
-165 -9 -187 -1 -10 4 -16 19 -16 39 -1 45 -47 109 -95 132 -49 24 -155 27
-205 7 -66 -27 -97 -76 -86 -135 11 -60 69 -94 206 -122 127 -27 290 -86 290
-106 0 -4 6 -8 13 -8 16 0 65 -59 90 -109 12 -22 21 -68 24 -118 5 -70 2 -91
-17 -142 -12 -33 -33 -72 -45 -85 -13 -14 -21 -27 -18 -29 2 -3 -4 -8 -15 -11
-11 -4 -23 -13 -26 -21 -3 -8 -12 -15 -21 -15 -8 0 -15 -4 -15 -10 0 -5 -12
-13 -27 -16 -16 -4 -32 -10 -38 -14 -21 -17 -134 -39 -215 -43 -178 -8 -326
57 -402 179 -44 70 -74 191 -54 222 5 8 40 12 107 12 109 0 108 1 123 -72 8
-35 49 -83 89 -104 18 -9 61 -18 97 -21 67 -5 180 12 180 27 0 5 9 12 20 15
11 3 20 13 20 21 0 8 5 12 10 9 6 -4 11 8 12 27 3 63 -3 92 -22 105 -10 7 -25
20 -33 27 -7 7 -29 17 -48 21 -19 4 -38 11 -44 15 -5 4 -30 11 -55 15 -25 3
-61 11 -80 17 -19 5 -51 14 -70 20 -88 24 -148 58 -195 110 -108 120 -100 313
19 446 38 42 154 99 226 111 74 13 196 6 261 -15z m1357 -4 l62 0 0 -580 0
-581 -116 3 -116 3 -22 40 c-11 22 -26 44 -32 50 -6 5 -29 37 -50 70 -21 33
-42 62 -46 63 -5 2 -8 10 -8 17 0 7 -4 15 -8 17 -10 4 -112 158 -112 169 0 4
-4 9 -8 11 -4 2 -52 69 -105 151 -54 81 -102 147 -107 147 -6 0 -11 -145 -12
-367 l-3 -368 -104 -3 c-77 -2 -107 1 -113 10 -9 15 -11 1108 -2 1132 5 13 25
16 120 16 79 0 114 -4 114 -11 0 -7 6 -17 14 -23 13 -10 220 -318 241 -357 5
-11 13 -19 17 -19 5 0 8 -4 8 -10 0 -5 26 -47 57 -92 31 -46 78 -115 104 -155
27 -39 53 -74 59 -78 7 -4 10 109 10 359 0 201 -1 369 -2 373 -4 10 52 22 77
17 11 -2 48 -4 83 -4z m-2872 -14 c3 -7 6 -109 7 -227 l2 -214 248 -3 247 -2
0 230 0 230 110 0 c81 0 110 -3 111 -12 6 -125 -1 -1132 -8 -1139 -5 -5 -54
-8 -109 -7 l-99 3 -3 238 -2 237 -250 0 -250 0 0 -227 c0 -126 -4 -234 -8
-241 -6 -9 -36 -12 -113 -10 l-104 3 -3 578 -2 577 110 0 c84 0 112 -3 116
-14z m5949 -3093 c101 -53 174 -183 160 -286 -3 -27 -10 -56 -14 -65 -5 -10
-14 -28 -20 -42 -18 -38 -82 -103 -126 -125 -56 -29 -204 -28 -260 2 -209 111
-203 425 10 521 65 29 188 27 250 -5z m-9052 -511 c7 -5 23 -13 37 -17 33 -10
114 -94 137 -142 25 -54 23 -172 -5 -234 -65 -146 -245 -209 -392 -137 -62 30
-126 106 -137 161 -3 17 -9 37 -13 42 -11 16 -12 105 -2 118 5 7 13 28 17 47
10 45 105 139 165 162 48 19 170 18 193 0z m1207 -90 c57 -26 97 -61 132 -115
31 -49 33 -56 33 -147 0 -84 -3 -100 -25 -135 -37 -60 -59 -83 -110 -112 -40
-24 -55 -27 -140 -28 -109 0 -150 14 -206 72 -49 51 -76 116 -82 199 -4 62 -1
77 24 128 26 54 96 126 122 126 6 0 12 5 14 10 10 31 173 32 238 2z m6103
-312 c48 -24 140 -100 121 -100 -3 0 5 -17 18 -37 33 -54 33 -179 1 -241 -34
-63 -79 -107 -140 -138 -49 -24 -63 -26 -138 -22 -91 5 -140 28 -198 92 -79
88 -93 236 -31 341 25 43 111 115 137 115 9 0 19 5 22 10 3 6 39 10 78 10 60
0 82 -5 130 -30z m-6012 -866 c8 -8 20 -14 25 -14 10 0 48 -34 77 -69 31 -38
57 -119 57 -177 0 -39 -8 -72 -29 -117 -45 -100 -120 -152 -237 -165 -39 -4
-77 -5 -85 -1 -8 4 -35 16 -61 28 -59 28 -122 98 -143 161 -16 49 -20 200 -5
200 4 0 13 14 20 31 18 43 82 107 127 126 78 33 213 31 254 -3z"/>
<path d="M15838 8265 c-3 -4 -4 -15 -1 -26 5 -16 14 -19 68 -19 48 0 64 -4 69
-16 3 -9 6 -103 6 -211 l0 -194 23 3 c22 3 22 5 27 208 l5 205 70 5 c62 4 70
7 70 25 0 19 -8 20 -166 23 -91 1 -168 0 -171 -3z"/>
<path d="M16280 8248 c-4 -226 1 -443 10 -452 23 -23 30 22 30 192 0 162 1
172 19 172 11 0 36 -23 61 -57 24 -32 51 -66 61 -75 9 -9 19 -23 22 -30 6 -15
51 29 112 110 64 85 70 76 73 -130 2 -149 5 -177 18 -182 9 -3 20 -3 25 0 6 3
9 104 9 240 l-1 234 -30 0 c-16 0 -29 -4 -29 -9 0 -5 -6 -16 -13 -23 -7 -7
-41 -50 -75 -95 -35 -46 -69 -83 -77 -83 -7 0 -28 19 -47 43 -18 23 -38 48
-45 55 -7 7 -13 16 -13 20 0 4 -14 21 -30 39 -17 18 -30 37 -30 42 0 6 -11 11
-25 11 -19 0 -25 -5 -25 -22z"/>
<path d="M11610 4153 c-107 -22 -170 -89 -170 -183 0 -72 35 -123 105 -154 21
-9 124 -36 132 -34 4 1 25 -6 47 -15 21 -9 42 -17 47 -17 4 0 19 -11 33 -24
53 -49 25 -148 -49 -176 -47 -18 -156 -12 -193 10 -34 21 -75 78 -66 92 3 4
-15 8 -39 8 l-45 0 11 -42 c15 -59 81 -124 136 -133 22 -4 43 -11 47 -16 7
-12 101 -12 109 1 3 6 16 10 27 10 31 0 107 41 132 70 12 15 28 45 35 68 13
38 12 48 -5 99 -27 81 -53 95 -270 152 -22 6 -56 21 -75 34 -28 19 -35 30 -37
64 -6 79 46 123 146 123 72 0 133 -35 148 -84 8 -27 14 -31 47 -34 41 -4 43 2
28 55 -29 100 -148 153 -281 126z"/>
<path d="M12329 4154 c-170 -32 -274 -167 -272 -352 1 -72 5 -91 33 -148 33
-66 81 -116 142 -146 59 -29 145 -50 185 -45 57 8 133 29 133 38 0 4 11 10 24
13 13 3 48 32 77 64 63 68 89 140 89 238 0 66 -24 159 -46 181 -8 8 -14 18
-14 22 0 15 -76 83 -113 103 -66 33 -162 46 -238 32z m173 -89 c76 -31 135
-109 152 -199 9 -50 -11 -153 -39 -202 -100 -171 -356 -160 -446 19 -29 58
-37 178 -15 231 9 21 13 43 9 49 -3 5 -2 7 3 4 5 -3 20 10 33 28 21 31 97 77
146 89 32 8 119 -3 157 -19z"/>
<path d="M16458 4155 c-151 -30 -219 -158 -147 -279 11 -20 26 -36 33 -36 7 0
17 -5 24 -12 13 -13 74 -32 156 -49 63 -13 122 -43 136 -68 14 -27 12 -102 -3
-122 -25 -32 -74 -49 -147 -49 -86 0 -141 29 -161 85 -12 33 -16 35 -57 35
-40 0 -43 -2 -36 -22 10 -35 34 -79 53 -98 28 -30 85 -60 114 -60 15 0 27 -4
27 -10 0 -26 144 -1 214 38 105 56 125 202 38 280 -20 18 -48 35 -62 38 -14 4
-44 12 -68 20 -23 8 -52 14 -63 14 -29 0 -101 35 -123 59 -30 33 -29 93 1 125
33 35 62 46 128 46 70 0 118 -28 142 -81 15 -36 20 -39 55 -39 44 0 46 7 19
65 -43 94 -156 143 -273 120z"/>
<path d="M4980 3815 l0 -335 40 0 40 0 0 130 c0 113 2 130 18 138 9 5 73 12
142 14 109 4 131 8 168 29 23 13 48 36 55 52 6 15 15 27 19 27 5 0 8 33 8 73
0 85 -16 125 -63 161 -49 37 -92 44 -267 45 l-160 2 0 -336z m343 251 c21 -7
35 -14 32 -17 -3 -3 4 -14 15 -24 31 -28 28 -112 -6 -148 -14 -16 -37 -32 -51
-38 -36 -14 -226 -12 -241 3 -15 15 -16 191 -1 219 9 18 20 20 112 18 56 -1
119 -7 140 -13z"/>
<path d="M5556 4119 c-3 -18 -4 -35 0 -38 3 -3 44 -6 92 -6 48 0 93 -4 100 -8
9 -6 12 -77 12 -298 l0 -289 40 0 40 0 1 273 c1 149 1 277 0 283 -3 26 31 36
119 37 l90 1 0 37 0 37 -244 1 -243 2 -7 -32z"/>
<path d="M6590 3814 l0 -334 40 0 41 0 -2 141 c0 85 3 145 9 151 10 10 351 13
360 3 2 -2 4 -69 4 -149 l1 -146 43 0 43 0 0 323 c0 177 -3 328 -8 335 -5 8
-21 12 -41 10 l-34 -3 -2 -138 c-1 -76 -5 -141 -7 -144 -9 -8 -351 -3 -360 6
-5 5 -9 69 -10 142 l-2 134 -37 1 -38 1 0 -333z"/>
<path d="M7343 4143 c-10 -4 -13 -80 -13 -334 l0 -329 40 0 40 0 0 335 0 335
-27 -1 c-16 0 -34 -3 -40 -6z"/>
<path d="M7627 4144 c-4 -4 -7 -155 -7 -336 l0 -328 39 0 40 0 1 246 c0 136 3
251 6 255 6 10 64 -17 64 -30 0 -4 8 -17 18 -29 46 -54 52 -63 52 -72 0 -6 4
-10 9 -10 5 0 20 -17 32 -37 47 -79 47 -79 117 11 35 45 72 91 83 104 10 12
19 26 19 30 0 10 38 42 49 42 18 0 20 -34 21 -270 l1 -240 39 0 40 0 -3 333
-2 332 -39 0 c-39 0 -41 -2 -141 -133 -95 -124 -119 -151 -137 -152 -4 0 -23
21 -43 48 -60 80 -79 104 -115 148 -19 24 -42 53 -51 66 -16 23 -76 37 -92 22z"/>
<path d="M8648 4143 c-10 -2 -18 -9 -18 -15 0 -5 -6 -24 -14 -41 -7 -18 -21
-52 -31 -77 -9 -25 -23 -58 -30 -75 -7 -16 -30 -75 -50 -130 -38 -100 -106
-275 -120 -307 -6 -16 -1 -18 34 -18 38 0 42 2 61 44 11 25 20 49 20 55 0 5 7
17 16 25 13 13 43 16 172 16 86 0 162 -4 168 -8 6 -4 19 -29 28 -57 24 -73 28
-77 73 -73 l40 3 -35 95 c-20 52 -39 97 -42 100 -4 3 -10 19 -14 35 -5 25 -39
111 -77 200 -5 11 -26 67 -48 125 l-39 105 -38 1 c-22 1 -47 0 -56 -3z m82
-175 c12 -35 28 -76 35 -93 12 -27 26 -62 30 -75 1 -3 7 -18 13 -33 16 -37 15
-74 0 -78 -7 -2 -66 -3 -130 -1 l-118 3 0 26 c0 25 26 99 88 251 17 42 30 62
42 62 12 0 24 -19 40 -62z"/>
<path d="M9147 4143 c-4 -3 -7 -154 -7 -335 l0 -328 35 0 35 0 1 223 c1 122 0
234 -1 250 -2 31 22 46 45 27 9 -7 54 -64 101 -126 54 -72 90 -111 99 -108 7
3 25 22 39 42 61 88 153 197 169 200 16 3 17 -17 18 -245 1 -136 1 -251 0
-255 0 -5 17 -8 39 -8 l40 0 0 335 0 335 -38 0 c-35 0 -62 -18 -73 -48 -2 -6
-18 -28 -36 -49 -57 -69 -133 -174 -133 -184 0 -17 -40 -9 -58 12 -9 12 -23
27 -29 34 -7 8 -13 18 -13 24 0 6 -4 11 -9 11 -4 0 -19 15 -32 34 -106 149
-122 166 -154 166 -17 0 -35 -3 -38 -7z"/>
<path d="M10177 4143 c-21 -3 -29 -11 -34 -34 -3 -16 -9 -29 -14 -29 -5 0 -9
-8 -9 -17 0 -10 -7 -30 -14 -45 -8 -16 -25 -58 -37 -95 -13 -38 -29 -79 -36
-93 -7 -14 -13 -31 -13 -37 0 -7 -4 -13 -10 -13 -5 0 -10 -13 -10 -28 0 -15
-4 -32 -10 -38 -5 -5 -23 -50 -41 -99 -17 -50 -35 -94 -40 -99 -20 -22 -8 -36
29 -36 36 0 39 3 60 50 12 28 22 56 22 64 0 21 33 26 196 26 151 0 152 0 168
-25 9 -14 19 -40 23 -57 9 -45 25 -58 72 -58 l40 0 -15 28 c-7 15 -14 34 -14
43 0 8 -4 19 -8 25 -5 5 -19 38 -32 74 -13 36 -26 70 -30 75 -4 6 -11 21 -15
35 -8 27 -81 216 -122 318 -14 34 -32 62 -39 62 -7 0 -18 2 -26 3 -7 2 -26 2
-41 0z m85 -218 c21 -55 48 -124 59 -153 32 -80 30 -82 -116 -82 -97 0 -127 3
-131 14 -3 7 4 39 15 70 12 31 30 82 41 114 11 31 25 65 30 74 6 10 10 24 10
31 0 19 22 38 39 35 8 -2 31 -47 53 -103z"/>
<path d="M10662 4143 c-10 -4 -12 -76 -12 -334 l1 -329 205 0 204 0 0 35 0 35
-153 0 c-106 0 -157 4 -165 12 -9 9 -12 89 -12 300 l0 288 -27 -1 c-16 0 -34
-3 -41 -6z"/>
<path d="M12919 4121 c-1 -17 -1 -49 -1 -71 0 -22 0 -160 1 -306 l1 -266 184
4 c192 4 205 7 255 57 32 32 54 92 48 133 -6 43 -46 103 -76 113 -37 11 -34
37 10 82 39 38 43 48 46 100 5 77 -18 119 -83 153 -45 23 -61 25 -216 28
l-168 4 -1 -31z m312 -52 c64 -22 88 -64 74 -128 -15 -70 -63 -90 -213 -87
-62 1 -85 5 -92 16 -13 20 -13 152 0 184 9 25 12 26 103 26 52 0 109 -5 128
-11z m27 -300 c40 -14 64 -52 64 -100 -1 -49 -16 -75 -55 -99 -27 -17 -51 -20
-144 -20 -133 0 -135 1 -132 113 2 125 -6 117 124 117 61 0 126 -5 143 -11z"/>
<path d="M13579 4128 c0 -13 -1 -164 -2 -335 l-2 -313 38 0 37 0 0 128 c0 86
4 132 12 140 12 12 135 17 174 6 20 -5 74 -96 74 -123 0 -5 3 -11 8 -13 4 -1
22 -33 41 -70 l34 -68 44 0 c23 0 43 2 43 5 0 5 -12 28 -99 188 -17 31 -31 66
-31 76 0 11 18 30 45 46 95 61 109 219 26 299 -46 44 -105 56 -283 56 -157 0
-158 0 -159 -22z m325 -59 c22 -6 45 -16 51 -23 39 -38 49 -116 21 -159 -30
-45 -72 -57 -199 -57 -135 0 -127 -9 -127 137 0 77 3 94 18 102 23 14 187 14
236 0z"/>
<path d="M14257 4136 c-8 -21 -9 -619 -1 -640 4 -10 18 -16 39 -16 31 0 33 2
40 46 7 49 5 590 -3 612 -6 17 -69 15 -75 -2z"/>
<path d="M14790 3816 l0 -336 40 0 40 0 0 244 c0 136 4 247 9 250 20 13 41
-10 129 -142 104 -156 197 -292 210 -307 4 -5 11 -18 15 -27 5 -14 18 -18 57
-18 l50 0 -2 333 -3 332 -35 1 -35 0 -5 -245 c-5 -234 -6 -246 -24 -246 -13 0
-38 26 -73 75 -29 41 -56 82 -60 90 -4 8 -35 56 -69 105 -33 50 -81 119 -105
155 -43 63 -46 65 -92 68 l-47 3 0 -335z"/>
<path d="M15546 4142 c-9 -9 -6 -372 4 -440 6 -47 19 -86 35 -110 35 -54 51
-72 62 -72 5 0 14 -5 20 -11 18 -18 114 -48 153 -49 47 0 129 31 175 66 20 15
48 50 63 78 27 51 27 52 30 297 l4 246 -39 -1 -38 -1 -5 -242 -5 -241 -30 -43
c-41 -58 -85 -79 -163 -79 -64 0 -92 11 -138 55 -38 36 -44 77 -44 320 l0 233
-40 -1 c-22 0 -42 -3 -44 -5z"/>
<path d="M17098 4139 c-10 -5 -18 -15 -18 -22 0 -6 -15 -50 -34 -97 -69 -174
-96 -245 -96 -255 -1 -5 -9 -28 -20 -50 -11 -22 -19 -48 -20 -57 0 -10 -4 -18
-9 -18 -5 0 -13 -17 -19 -37 -15 -57 -36 -107 -47 -116 -5 -4 13 -6 40 -5 l50
3 15 47 c28 88 29 88 202 88 84 0 159 -4 167 -9 8 -5 24 -36 36 -68 22 -57 22
-58 65 -61 40 -3 42 -2 37 20 -4 13 -14 42 -24 64 -9 21 -17 41 -18 44 0 5
-22 63 -35 95 -5 11 -18 42 -29 69 -12 27 -21 54 -21 61 0 8 -7 26 -15 42 -8
15 -31 71 -51 123 -19 52 -40 105 -46 117 -15 31 -74 43 -110 22z m77 -144 c5
-17 13 -32 16 -35 4 -3 11 -21 17 -40 13 -45 32 -97 49 -138 8 -18 15 -45 16
-60 l2 -27 -128 -3 c-109 -2 -128 0 -134 13 -3 9 -1 26 5 38 6 12 29 73 51
135 22 62 46 122 52 133 14 28 42 20 54 -16z"/>
<path d="M17590 3813 l0 -333 40 0 40 0 2 247 c3 261 6 276 48 231 20 -21 210
-302 219 -323 2 -5 8 -14 13 -20 4 -5 17 -21 28 -34 11 -13 20 -29 20 -35 0
-6 12 -23 25 -38 20 -23 32 -28 70 -28 l45 0 -2 333 -3 332 -37 3 -38 3 0
-244 c0 -309 -4 -313 -120 -138 -28 42 -54 81 -58 86 -23 28 -92 138 -92 145
0 5 -3 10 -7 12 -12 5 -53 66 -53 78 0 6 -4 8 -10 5 -5 -3 -10 0 -10 8 0 27
-36 48 -79 45 l-41 -3 0 -332z"/>
<path d="M18277 4135 c-9 -22 4 -55 22 -56 107 -4 139 -7 159 -13 l22 -7 0
-290 0 -289 40 0 40 0 0 289 c0 212 3 292 12 297 6 4 50 7 97 7 47 -1 89 3 92
8 3 5 3 23 1 40 l-4 30 -238 -1 c-189 -1 -239 -4 -243 -15z"/>
<path d="M19011 4131 c-10 -9 -35 -61 -56 -116 -21 -55 -44 -114 -51 -132 -8
-17 -14 -36 -14 -42 0 -6 -9 -33 -21 -59 -12 -26 -25 -56 -30 -67 -5 -11 -18
-47 -30 -80 -12 -33 -25 -64 -29 -70 -4 -5 -13 -27 -18 -47 l-10 -38 44 0 c33
0 44 4 44 16 0 21 40 107 54 116 20 14 322 9 333 -4 6 -7 19 -38 31 -68 19
-53 21 -55 61 -58 30 -2 41 1 41 11 0 7 -3 17 -7 21 -4 3 -8 12 -9 19 -4 17
-43 125 -61 167 -8 19 -19 44 -23 55 -4 11 -22 55 -39 97 -17 43 -31 82 -31
88 0 6 -13 38 -30 72 -16 33 -30 66 -30 74 0 8 -7 26 -16 39 -12 19 -24 24
-51 23 -19 -1 -43 -8 -52 -17z m66 -113 c10 -16 79 -198 99 -261 8 -26 12 -52
9 -57 -4 -6 -60 -10 -131 -10 -99 0 -126 3 -130 14 -5 13 63 209 102 294 15
33 37 41 51 20z"/>
<path d="M19509 4144 c-1 -5 -2 -156 -3 -336 l-3 -328 39 0 38 0 0 130 c0 153
-2 150 114 150 65 0 78 -3 96 -22 11 -12 20 -30 20 -39 0 -10 4 -20 8 -23 5
-3 30 -48 57 -101 l47 -95 44 0 c24 0 44 3 44 6 0 3 -23 49 -52 102 -28 53
-58 108 -65 122 -21 41 -15 58 27 82 100 58 117 220 32 297 -62 55 -64 55
-258 59 -101 2 -184 0 -185 -4z m353 -84 c49 -23 64 -65 56 -152 -1 -10 -14
-30 -30 -45 -27 -26 -33 -27 -154 -31 -113 -4 -126 -3 -139 14 -19 25 -21 204
-2 223 16 17 230 10 269 -9z"/>
<path d="M20350 4123 c-6 -15 -15 -37 -20 -48 -16 -35 -117 -298 -134 -347 -9
-26 -20 -56 -25 -65 -19 -37 -51 -122 -51 -137 0 -9 -4 -16 -10 -16 -5 0 -10
-7 -10 -15 0 -11 11 -15 40 -15 36 0 40 3 55 38 9 20 24 52 32 70 l16 32 159
0 c145 0 160 -2 178 -20 11 -11 20 -24 20 -29 0 -5 5 -22 12 -38 6 -15 12 -32
12 -38 1 -5 20 -11 44 -13 36 -3 42 0 42 17 0 11 -4 23 -10 26 -5 3 -10 14
-10 23 -1 9 -9 35 -20 57 -11 22 -19 47 -20 56 0 8 -4 19 -8 25 -8 9 -15 27
-102 254 -80 208 -77 204 -133 208 -44 3 -48 1 -57 -25z m78 -106 c6 -6 14
-26 18 -42 4 -17 10 -34 14 -40 4 -5 18 -41 31 -80 13 -38 27 -72 31 -75 4 -3
10 -25 14 -48 l7 -42 -131 0 c-145 0 -154 5 -128 63 8 18 30 78 50 135 20 57
41 112 46 123 12 22 33 25 48 6z"/>
<path d="M6068 3579 c-30 -22 -36 -54 -15 -83 9 -13 23 -17 52 -14 35 3 40 7
49 36 8 28 6 36 -14 57 -28 30 -37 30 -72 4z"/>
</g>
</svg>
